<svg width="23" height="24" viewBox="0 0 23 24" fill="none" xmlns="http://www.w3.org/2000/svg">
<path d="M1.33266 1.98689C1.11537 2.41909 1.00852 2.95453 0.794823 4.02301L0.0768998 7.61263C-0.0248473 8.10206 -0.0256353 8.6071 0.0745839 9.09685C0.174803 9.58659 0.373921 10.0507 0.659747 10.4609C0.945574 10.871 1.3121 11.2184 1.73687 11.482C2.16165 11.7455 2.63575 11.9196 3.13014 11.9936C3.62453 12.0675 4.12882 12.0398 4.61213 11.9121C5.09544 11.7844 5.5476 11.5594 5.94093 11.2509C6.33426 10.9424 6.66048 10.5568 6.89964 10.1178C7.13879 9.67886 7.28583 9.19569 7.33176 8.69791L7.4158 7.86954C7.3703 8.39639 7.43521 8.92693 7.60636 9.42727C7.77751 9.92761 8.05115 10.3867 8.4098 10.7753C8.76845 11.1639 9.20421 11.4734 9.68925 11.6841C10.1743 11.8947 10.6979 12.0019 11.2267 11.9987C11.7555 11.9955 12.2778 11.8821 12.7603 11.6656C13.2428 11.4491 13.6748 11.1344 14.0287 10.7415C14.3826 10.3486 14.6507 9.88619 14.8158 9.38383C14.9809 8.88146 15.0395 8.35018 14.9876 7.82392L15.0752 8.69791C15.1212 9.19569 15.2682 9.67886 15.5074 10.1178C15.7465 10.5568 16.0728 10.9424 16.4661 11.2509C16.8594 11.5594 17.3116 11.7844 17.7949 11.9121C18.2782 12.0398 18.7825 12.0675 19.2769 11.9936C19.7713 11.9196 20.2454 11.7455 20.6701 11.482C21.0949 11.2184 21.4614 10.871 21.7473 10.4609C22.0331 10.0507 22.2322 9.58659 22.3324 9.09685C22.4326 8.6071 22.4319 8.10206 22.3301 7.61263L21.6122 4.02301C21.3985 2.95453 21.2916 2.42029 21.0743 1.98689C20.8479 1.53554 20.5291 1.13684 20.1386 0.816668C19.7482 0.496501 19.2947 0.262025 18.8077 0.128458C18.3395 1.3411e-07 17.7945 0 16.7044 0H5.70263C4.61254 0 4.0675 1.3411e-07 3.59928 0.128458C3.11231 0.262025 2.65886 0.496501 2.26837 0.816668C1.87788 1.13684 1.55908 1.53554 1.33266 1.98689ZM18.7297 13.8062C19.6677 13.8086 20.5904 13.5683 21.4081 13.1087V14.4065C21.4081 18.9337 21.4081 21.1979 20.0011 22.6038C18.869 23.7371 17.1822 23.9568 14.2049 24V19.8089C14.2049 18.6864 14.2049 18.1258 13.9635 17.708C13.8055 17.4342 13.5782 17.2069 13.3045 17.0489C12.8867 16.8076 12.326 16.8076 11.2035 16.8076C10.081 16.8076 9.52035 16.8076 9.10256 17.0489C8.82883 17.2069 8.60151 17.4342 8.44346 17.708C8.20216 18.1258 8.20216 18.6864 8.20216 19.8089V24C5.22482 23.9568 3.53806 23.7359 2.40595 22.6038C0.998914 21.1979 0.998914 18.9337 0.998914 14.4065V13.1087C1.81698 13.5685 2.7401 13.8088 3.67852 13.8062C5.06594 13.8072 6.40172 13.2801 7.4146 12.332C8.44692 13.2829 9.79997 13.8093 11.2035 13.8062C12.607 13.8092 13.96 13.2828 14.9924 12.332C16.0053 13.2801 17.3423 13.8072 18.7297 13.8062Z" fill="white"/>
</svg>
